<svg id="visual" viewBox="0 0 1500 900" width="1500" height="900" xmlns="http://www.w3.org/2000/svg" xmlns:xlink="http://www.w3.org/1999/xlink" version="1.1"><rect x="0" y="0" width="1500" height="900" fill="#001220"></rect><path d="M0 168L16.7 173C33.3 178 66.7 188 100 188C133.3 188 166.7 178 200 171.5C233.3 165 266.7 162 300 166.8C333.3 171.7 366.7 184.3 400 188.8C433.3 193.3 466.7 189.7 500 181.3C533.3 173 566.7 160 600 155.3C633.3 150.7 666.7 154.3 700 163.3C733.3 172.3 766.7 186.7 800 188.8C833.3 191 866.7 181 900 175C933.3 169 966.7 167 1000 168.3C1033.3 169.7 1066.7 174.3 1100 180.3C1133.3 186.3 1166.7 193.7 1200 195.2C1233.3 196.7 1266.7 192.3 1300 187.7C1333.3 183 1366.7 178 1400 180C1433.3 182 1466.7 191 1483.3 195.5L1500 200L1500 0L1483.3 0C1466.7 0 1433.3 0 1400 0C1366.7 0 1333.3 0 1300 0C1266.7 0 1233.3 0 1200 0C1166.7 0 1133.3 0 1100 0C1066.7 0 1033.3 0 1000 0C966.7 0 933.3 0 900 0C866.7 0 833.3 0 800 0C766.7 0 733.3 0 700 0C666.7 0 633.3 0 600 0C566.7 0 533.3 0 500 0C466.7 0 433.3 0 400 0C366.7 0 333.3 0 300 0C266.7 0 233.3 0 200 0C166.7 0 133.3 0 100 0C66.7 0 33.3 0 16.7 0L0 0Z" fill="#fa7268"></path><path d="M0 141L16.7 136C33.3 131 66.7 121 100 118.2C133.3 115.3 166.7 119.7 200 124.2C233.3 128.7 266.7 133.3 300 134.8C333.3 136.3 366.7 134.7 400 132.2C433.3 129.7 466.7 126.3 500 128C533.3 129.7 566.7 136.3 600 136.7C633.3 137 666.7 131 700 129.5C733.3 128 766.7 131 800 134.8C833.3 138.7 866.7 143.3 900 139.8C933.3 136.3 966.7 124.7 1000 118.5C1033.3 112.3 1066.7 111.7 1100 114.5C1133.3 117.3 1166.7 123.7 1200 126C1233.3 128.3 1266.7 126.7 1300 131.2C1333.3 135.7 1366.7 146.3 1400 144.5C1433.3 142.7 1466.7 128.3 1483.3 121.2L1500 114L1500 0L1483.3 0C1466.7 0 1433.3 0 1400 0C1366.7 0 1333.3 0 1300 0C1266.7 0 1233.3 0 1200 0C1166.7 0 1133.3 0 1100 0C1066.7 0 1033.3 0 1000 0C966.7 0 933.3 0 900 0C866.7 0 833.3 0 800 0C766.7 0 733.3 0 700 0C666.7 0 633.3 0 600 0C566.7 0 533.3 0 500 0C466.7 0 433.3 0 400 0C366.7 0 333.3 0 300 0C266.7 0 233.3 0 200 0C166.7 0 133.3 0 100 0C66.7 0 33.3 0 16.7 0L0 0Z" fill="#eb5967"></path><path d="M0 90L16.7 88.7C33.3 87.3 66.7 84.7 100 83.5C133.3 82.3 166.7 82.7 200 83C233.3 83.3 266.7 83.7 300 83C333.3 82.3 366.7 80.7 400 81.3C433.3 82 466.7 85 500 86.5C533.3 88 566.7 88 600 86.8C633.3 85.7 666.7 83.3 700 81.2C733.3 79 766.7 77 800 76.7C833.3 76.3 866.7 77.7 900 81.7C933.3 85.7 966.7 92.3 1000 94.7C1033.3 97 1066.7 95 1100 92.8C1133.3 90.7 1166.7 88.3 1200 88.2C1233.3 88 1266.7 90 1300 88.3C1333.3 86.7 1366.7 81.3 1400 84.5C1433.3 87.7 1466.7 99.3 1483.3 105.2L1500 111L1500 0L1483.3 0C1466.7 0 1433.3 0 1400 0C1366.7 0 1333.3 0 1300 0C1266.7 0 1233.3 0 1200 0C1166.7 0 1133.3 0 1100 0C1066.7 0 1033.3 0 1000 0C966.7 0 933.3 0 900 0C866.7 0 833.3 0 800 0C766.7 0 733.3 0 700 0C666.7 0 633.3 0 600 0C566.7 0 533.3 0 500 0C466.7 0 433.3 0 400 0C366.7 0 333.3 0 300 0C266.7 0 233.3 0 200 0C166.7 0 133.3 0 100 0C66.7 0 33.3 0 16.7 0L0 0Z" fill="#da3f67"></path><path d="M0 64L16.7 59.7C33.3 55.3 66.7 46.7 100 45.7C133.3 44.7 166.7 51.3 200 54.3C233.3 57.3 266.7 56.7 300 58C333.3 59.3 366.7 62.7 400 61C433.3 59.3 466.7 52.7 500 51.5C533.3 50.3 566.7 54.7 600 58.2C633.3 61.7 666.7 64.3 700 65.3C733.3 66.3 766.7 65.7 800 61C833.3 56.3 866.7 47.7 900 43.5C933.3 39.3 966.7 39.7 1000 39.5C1033.3 39.3 1066.7 38.7 1100 38.7C1133.3 38.7 1166.7 39.3 1200 40.8C1233.3 42.3 1266.7 44.7 1300 48.3C1333.3 52 1366.7 57 1400 56.2C1433.3 55.3 1466.7 48.7 1483.3 45.3L1500 42L1500 0L1483.3 0C1466.7 0 1433.3 0 1400 0C1366.7 0 1333.3 0 1300 0C1266.7 0 1233.3 0 1200 0C1166.7 0 1133.3 0 1100 0C1066.7 0 1033.3 0 1000 0C966.7 0 933.3 0 900 0C866.7 0 833.3 0 800 0C766.7 0 733.3 0 700 0C666.7 0 633.3 0 600 0C566.7 0 533.3 0 500 0C466.7 0 433.3 0 400 0C366.7 0 333.3 0 300 0C266.7 0 233.3 0 200 0C166.7 0 133.3 0 100 0C66.7 0 33.3 0 16.7 0L0 0Z" fill="#c62368"></path></svg>