<svg id="visual" viewBox="0 0 900 600" width="900" height="600" xmlns="http://www.w3.org/2000/svg" xmlns:xlink="http://www.w3.org/1999/xlink" version="1.1"><rect x="0" y="0" width="900" height="600" fill="#001220"></rect><path d="M0 150L9.3 145.3C18.7 140.7 37.3 131.3 56.2 130.7C75 130 94 138 112.8 136.8C131.7 135.7 150.3 125.3 169 119.8C187.7 114.3 206.3 113.7 225 118.7C243.7 123.7 262.3 134.3 281.2 138.7C300 143 319 141 337.8 140.2C356.7 139.3 375.3 139.7 394 139.5C412.7 139.3 431.3 138.7 450 141.3C468.7 144 487.3 150 506.2 149.3C525 148.7 544 141.3 562.8 134.8C581.7 128.3 600.3 122.7 619 124.2C637.7 125.7 656.3 134.3 675 137.3C693.7 140.3 712.3 137.7 731.2 136.8C750 136 769 137 787.8 139.8C806.7 142.7 825.3 147.3 844 145.2C862.7 143 881.3 134 890.7 129.5L900 125L900 0L890.7 0C881.3 0 862.7 0 844 0C825.3 0 806.7 0 787.8 0C769 0 750 0 731.2 0C712.3 0 693.7 0 675 0C656.3 0 637.7 0 619 0C600.3 0 581.7 0 562.8 0C544 0 525 0 506.2 0C487.3 0 468.7 0 450 0C431.3 0 412.7 0 394 0C375.3 0 356.7 0 337.8 0C319 0 300 0 281.2 0C262.3 0 243.7 0 225 0C206.3 0 187.7 0 169 0C150.3 0 131.7 0 112.8 0C94 0 75 0 56.2 0C37.3 0 18.7 0 9.3 0L0 0Z" fill="#4facf7"></path><path d="M0 130L9.3 126.2C18.7 122.3 37.3 114.7 56.2 114.7C75 114.7 94 122.3 112.8 126.3C131.7 130.3 150.3 130.7 169 131.2C187.7 131.7 206.3 132.3 225 127.3C243.7 122.3 262.3 111.7 281.2 105.3C300 99 319 97 337.8 98.2C356.7 99.3 375.3 103.7 394 107.8C412.7 112 431.3 116 450 117.2C468.7 118.3 487.3 116.7 506.2 113.2C525 109.7 544 104.3 562.8 103.2C581.7 102 600.3 105 619 105.8C637.7 106.7 656.3 105.3 675 108.7C693.7 112 712.3 120 731.2 122.3C750 124.7 769 121.3 787.8 119.8C806.7 118.3 825.3 118.7 844 116.2C862.7 113.7 881.3 108.3 890.7 105.7L900 103L900 0L890.7 0C881.3 0 862.7 0 844 0C825.3 0 806.7 0 787.8 0C769 0 750 0 731.2 0C712.3 0 693.7 0 675 0C656.3 0 637.7 0 619 0C600.3 0 581.7 0 562.8 0C544 0 525 0 506.2 0C487.3 0 468.7 0 450 0C431.3 0 412.7 0 394 0C375.3 0 356.7 0 337.8 0C319 0 300 0 281.2 0C262.3 0 243.7 0 225 0C206.3 0 187.7 0 169 0C150.3 0 131.7 0 112.8 0C94 0 75 0 56.2 0C37.3 0 18.7 0 9.3 0L0 0Z" fill="#33a0fb"></path><path d="M0 83L9.3 85.8C18.7 88.7 37.3 94.3 56.2 96.5C75 98.7 94 97.3 112.8 98.5C131.7 99.7 150.3 103.3 169 99.5C187.7 95.7 206.3 84.3 225 82.5C243.7 80.7 262.3 88.3 281.2 89.8C300 91.3 319 86.7 337.8 86.3C356.7 86 375.3 90 394 89.7C412.7 89.3 431.3 84.7 450 84.3C468.7 84 487.3 88 506.2 89.8C525 91.7 544 91.3 562.8 89C581.7 86.7 600.3 82.3 619 79.8C637.7 77.3 656.3 76.7 675 76C693.7 75.3 712.3 74.7 731.2 74.8C750 75 769 76 787.8 81.5C806.7 87 825.3 97 844 99C862.7 101 881.3 95 890.7 92L900 89L900 0L890.7 0C881.3 0 862.7 0 844 0C825.3 0 806.7 0 787.8 0C769 0 750 0 731.2 0C712.3 0 693.7 0 675 0C656.3 0 637.7 0 619 0C600.3 0 581.7 0 562.8 0C544 0 525 0 506.2 0C487.3 0 468.7 0 450 0C431.3 0 412.7 0 394 0C375.3 0 356.7 0 337.8 0C319 0 300 0 281.2 0C262.3 0 243.7 0 225 0C206.3 0 187.7 0 169 0C150.3 0 131.7 0 112.8 0C94 0 75 0 56.2 0C37.3 0 18.7 0 9.3 0L0 0Z" fill="#1393fe"></path><path d="M0 73L9.3 72.7C18.7 72.3 37.3 71.7 56.2 71.2C75 70.7 94 70.3 112.8 71.8C131.7 73.3 150.3 76.7 169 78.5C187.7 80.3 206.3 80.7 225 80.8C243.7 81 262.3 81 281.2 78C300 75 319 69 337.8 65.5C356.7 62 375.3 61 394 61.8C412.7 62.7 431.3 65.3 450 67C468.7 68.7 487.3 69.3 506.2 67.2C525 65 544 60 562.8 60.5C581.7 61 600.3 67 619 68.2C637.7 69.3 656.3 65.7 675 66.5C693.7 67.3 712.3 72.7 731.2 73C750 73.3 769 68.7 787.8 67.8C806.7 67 825.3 70 844 68.7C862.7 67.3 881.3 61.7 890.7 58.8L900 56L900 0L890.7 0C881.3 0 862.7 0 844 0C825.3 0 806.7 0 787.8 0C769 0 750 0 731.2 0C712.3 0 693.7 0 675 0C656.3 0 637.7 0 619 0C600.3 0 581.7 0 562.8 0C544 0 525 0 506.2 0C487.3 0 468.7 0 450 0C431.3 0 412.7 0 394 0C375.3 0 356.7 0 337.8 0C319 0 300 0 281.2 0C262.3 0 243.7 0 225 0C206.3 0 187.7 0 169 0C150.3 0 131.7 0 112.8 0C94 0 75 0 56.2 0C37.3 0 18.7 0 9.3 0L0 0Z" fill="#0085ff"></path><path d="M0 34L9.3 35.3C18.7 36.7 37.3 39.3 56.2 43C75 46.7 94 51.3 112.8 53C131.7 54.7 150.3 53.3 169 52.5C187.7 51.7 206.3 51.3 225 52C243.7 52.7 262.3 54.3 281.2 55C300 55.7 319 55.3 337.8 51.7C356.7 48 375.3 41 394 41.2C412.7 41.3 431.3 48.7 450 49.5C468.7 50.3 487.3 44.7 506.2 41.7C525 38.7 544 38.3 562.8 40.8C581.7 43.3 600.3 48.7 619 51.2C637.7 53.7 656.3 53.3 675 52.5C693.7 51.7 712.3 50.3 731.2 47.2C750 44 769 39 787.8 38.2C806.7 37.3 825.3 40.7 844 45.2C862.7 49.7 881.3 55.3 890.7 58.2L900 61L900 0L890.7 0C881.3 0 862.7 0 844 0C825.3 0 806.7 0 787.8 0C769 0 750 0 731.2 0C712.3 0 693.7 0 675 0C656.3 0 637.7 0 619 0C600.3 0 581.7 0 562.8 0C544 0 525 0 506.2 0C487.3 0 468.7 0 450 0C431.3 0 412.7 0 394 0C375.3 0 356.7 0 337.8 0C319 0 300 0 281.2 0C262.3 0 243.7 0 225 0C206.3 0 187.7 0 169 0C150.3 0 131.7 0 112.8 0C94 0 75 0 56.2 0C37.3 0 18.7 0 9.3 0L0 0Z" fill="#0076ff"></path><path d="M0 20L9.3 19.5C18.7 19 37.3 18 56.2 19.3C75 20.7 94 24.3 112.8 23.5C131.7 22.7 150.3 17.3 169 16.8C187.7 16.3 206.3 20.7 225 21.2C243.7 21.7 262.3 18.3 281.2 18.7C300 19 319 23 337.8 25.3C356.7 27.7 375.3 28.3 394 29.3C412.7 30.3 431.3 31.7 450 30.5C468.7 29.3 487.3 25.7 506.2 23.2C525 20.7 544 19.3 562.8 19.3C581.7 19.3 600.3 20.7 619 20.8C637.7 21 656.3 20 675 19.7C693.7 19.3 712.3 19.7 731.2 21.3C750 23 769 26 787.8 27.5C806.7 29 825.3 29 844 30.2C862.7 31.3 881.3 33.7 890.7 34.8L900 36L900 0L890.7 0C881.3 0 862.7 0 844 0C825.3 0 806.7 0 787.8 0C769 0 750 0 731.2 0C712.3 0 693.7 0 675 0C656.3 0 637.7 0 619 0C600.3 0 581.7 0 562.8 0C544 0 525 0 506.2 0C487.3 0 468.7 0 450 0C431.3 0 412.7 0 394 0C375.3 0 356.7 0 337.8 0C319 0 300 0 281.2 0C262.3 0 243.7 0 225 0C206.3 0 187.7 0 169 0C150.3 0 131.7 0 112.8 0C94 0 75 0 56.2 0C37.3 0 18.7 0 9.3 0L0 0Z" fill="#0066ff"></path></svg>